<?xml version="1.0" standalone="no"?>
<!DOCTYPE svg PUBLIC "-//W3C//DTD SVG 20010904//EN"
 "http://www.w3.org/TR/2001/REC-SVG-20010904/DTD/svg10.dtd">
<svg version="1.0" xmlns="http://www.w3.org/2000/svg"
 width="640.000000pt" height="479.000000pt" viewBox="0 0 640.000000 479.000000"
 preserveAspectRatio="xMidYMid meet">

<g transform="translate(0.000000,479.000000) scale(0.100000,-0.100000)"
fill="#000000" stroke="none">
<path d="M237 4703 c-4 -49 -11 -234 -17 -413 -6 -179 -15 -344 -20 -367 -6
-23 -10 -99 -10 -170 0 -108 4 -139 24 -200 41 -122 104 -193 221 -248 l60
-28 250 6 250 6 30 -38 c17 -21 37 -48 45 -61 13 -19 102 -138 146 -195 76
-100 151 -199 159 -213 6 -9 25 -37 43 -62 l34 -45 -5 90 c-3 50 -12 188 -20
308 -9 120 -14 224 -11 231 5 13 169 26 325 26 102 0 127 8 132 39 4 23 4 22
6 -6 1 -39 -30 -37 296 -22 213 9 245 13 284 32 91 46 164 162 181 292 5 38
11 170 13 293 2 123 8 227 13 230 11 9 11 1 18 167 3 77 9 206 12 288 l7 147
-289 0 -289 0 0 -113 c-1 -107 -2 -115 -33 -171 -18 -32 -32 -64 -32 -70 0 -6
-39 -49 -88 -95 -217 -207 -205 -190 -217 -313 -4 -37 -10 -70 -14 -72 -10 -7
-247 5 -259 13 -12 7 11 211 29 261 7 19 22 51 32 70 21 36 162 180 177 180 4
0 42 33 83 73 72 70 75 76 82 130 4 31 4 68 1 82 l-6 25 -229 0 -228 0 -15
-38 c-14 -36 -17 -39 -49 -34 -19 2 -38 8 -44 12 -5 4 -45 16 -88 25 -42 9
-80 21 -83 26 -3 5 -199 9 -453 9 l-448 0 -6 -87z m1473 -869 c66 -56 83 -150
42 -235 -60 -123 -197 -137 -277 -29 -20 28 -25 45 -25 96 0 79 9 103 60 154
38 38 43 40 104 40 55 0 69 -4 96 -26z"/>
<path d="M4529 4666 c-2 -2 -56 -12 -119 -21 -63 -9 -151 -22 -195 -30 -72
-13 -159 -27 -443 -71 -115 -18 -161 -40 -212 -105 -74 -94 -97 -229 -66 -391
8 -40 17 -103 21 -140 4 -40 12 -68 19 -68 9 0 106 112 223 258 l18 23 189
-10 c103 -6 192 -9 196 -6 5 3 15 25 23 50 26 76 108 174 189 226 26 17 78 41
115 54 l68 24 0 102 c0 91 -8 123 -26 105z"/>
<path d="M3330 3746 c0 -56 4 -98 11 -101 22 -14 56 8 106 69 77 93 78 90 -19
110 -46 9 -86 16 -90 16 -5 0 -8 -42 -8 -94z"/>
</g>
</svg>
